# xmcd CD database file
#
# Track frame offsets:
#	150
#	10106
#	24184
#	35132
#	49543
#	64911
#	80117
#	92708
#	106582
#	119233
#	133134
#	144552
#	157169
#	172868
#	186725
#	200433
#	212535
#	227106
#	242752
#	257343
#	273474
#	288518
#	302132
#	316659
#
# Disc length: 4427 seconds
#
# Revision: 0
# Processed by: cddbd v1.4PL0 Copyright (c) Steve Scherf et al.
# Submitted via: CDex 1.51
#
DISCID=5b114918
DTITLE=Arthur Briggs - Hot Trumpet in Europe 1927-1933
DYEAR=1995
DGENRE=Jazz
TTITLE0=Bugle Call Rag
TTITLE1=Miss Annabelle Lee
TTITLE2=Memphis
TTITLE3=Ain't she sweet
TTITLE4=Do the Black Bottom with me
TTITLE5=Yale Blues
TTITLE6=Since I found you
TTITLE7=Whoo-oo You-oo That's who
TTITLE8=Rosy Cheeks
TTITLE9=I'm coming, Virginia
TTITLE10=Crazy Words, crazy Tune
TTITLE11=You should see my Tootsie
TTITLE12=Sometimes I'm happy
TTITLE13=Snag it
TTITLE14=Vo-do-do-de-o
TTITLE15=Then came the Dawn
TTITLE16=Nobody's Sweetheart
TTITLE17=Grabbin' Blues
TTITLE18=I've got Rythm
TTITLE19=Japanese Sandman
TTITLE20=Sing about the Swanee
TTITLE21=My Baby's gone
TTITLE22=Sweet Georgia Brown
TTITLE23=Foxy and grapesy
EXTD=YEAR: 1995
EXTT0=
EXTT1=
EXTT2=
EXTT3=
EXTT4=
EXTT5=
EXTT6=
EXTT7=
EXTT8=
EXTT9=
EXTT10=
EXTT11=
EXTT12=
EXTT13=
EXTT14=
EXTT15=
EXTT16=
EXTT17=
EXTT18=
EXTT19=
EXTT20=
EXTT21=
EXTT22=
EXTT23=
PLAYORDER=
